<?xml version="1.0" encoding="UTF-8"?>
<svg width="1192px" height="1071px" viewBox="0 0 1192 1071" version="1.1" xmlns="http://www.w3.org/2000/svg" xmlns:xlink="http://www.w3.org/1999/xlink">
    <!-- Generator: Sketch 61.2 (89653) - https://sketch.com -->
    <title>Logo-thick-blue</title>
    <desc>Created with Sketch.</desc>
    <g id="Logo-thick-blue" stroke="none" stroke-width="1" fill="none" fill-rule="evenodd">
        <g id="background" transform="translate(89.000000, 47.000000)" fill="#051825">
            <circle id="Oval" cx="500" cy="500" r="500"></circle>
        </g>
        <g id="logo-nobg" transform="translate(596.848995, 545.993908) rotate(-2.000000) translate(-596.848995, -545.993908) translate(207.348995, 253.993908)">
            <path d="M-4.54747351e-13,438.588439 C5.18231476,407.995162 -4.12923555,399.560406 26.7446372,336.416039 C30.2408489,329.26546 39.9004411,274.188841 50.8768588,254.824024 C59.0279958,240.443623 83.0297596,147.193272 103.224224,152.489372 C105.306553,153.035474 129.170965,195.491166 131.718422,202.760155 C140.048424,226.52922 170.713053,364.296973 173.476845,370.648201 C178.880444,383.065738 187.250067,417.615682 200.758524,425.902843 C212.589792,433.161083 234.926301,396.125827 239.421349,389.388251 C265.919979,349.669754 264.866951,294.804271 293.856107,254.824024 C300.607903,245.512319 313.436363,221.637434 330.736896,228.709331 C351.596054,237.23588 354.320197,266.674517 360.618142,283.421451 C362.924804,289.555118 367.415216,294.732847 369.574249,300.920133 C375.175687,316.972546 376.66417,335.898806 385.842214,351.255283 C395.754522,367.840313 409.009894,382.221791 419.416132,398.500807 C429.194517,413.797639 437.239339,435.016957 447.120356,450.178473 C450.083308,454.724851 473.963212,493.117837 483.275471,507.584819 C510.723045,550.225769 537.325206,544.59734 559.820331,503.023943 C563.486748,496.248011 566.812163,489.177188 568.849924,481.745986 C573.510229,464.751027 575.45659,447.101175 579.836081,430.031539 C581.855918,422.158964 624.366801,303.575584 635.841603,263.449228 C640.251467,241.53933 643.928829,225.199257 646.87369,214.429009 C655.549929,182.697366 670.65985,153.738248 682,123" id="Path" stroke="#0090D4" stroke-width="50"></path>
            <path d="M700.805048,26.8420434 L757.714878,140.661704 C758.949824,143.131596 757.948702,146.134961 755.47881,147.369907 C754.784533,147.717046 754.018967,147.897772 753.242742,147.897772 L639.423082,147.897772 C636.661658,147.897772 634.423082,145.659195 634.423082,142.897772 C634.423082,142.121546 634.603807,141.355981 634.950946,140.661704 L691.860776,26.8420434 C693.095722,24.3721509 696.099087,23.3710292 698.56898,24.6059754 C699.536617,25.0897939 700.321229,25.8744064 700.805048,26.8420434 Z" id="Triangle" fill="#0090D4" transform="translate(696.332912, 82.897772) rotate(19.000000) translate(-696.332912, -82.897772) "></path>
            <g id="points" transform="translate(70.000000, 130.000000)" fill="#0090D4" stroke="#051825" stroke-width="20">
                <circle id="Oval" cx="40.2740006" cy="40.142671" r="40"></circle>
                <circle id="Oval" cx="257.836616" cy="113.780355" r="40"></circle>
                <circle id="Oval" cx="148.059059" cy="306.066309" r="40"></circle>
                <circle id="Oval" cx="463.514381" cy="413.140768" r="40"></circle>
            </g>
        </g>
    </g>
</svg>